<?xml version="1.0" standalone="no"?>
<!DOCTYPE svg PUBLIC "-//W3C//DTD SVG 20010904//EN"
 "http://www.w3.org/TR/2001/REC-SVG-20010904/DTD/svg10.dtd">
<svg version="1.0" xmlns="http://www.w3.org/2000/svg"
 width="128.000000pt" height="128.000000pt" viewBox="0 0 128.000000 128.000000"
 preserveAspectRatio="xMidYMid meet">
<metadata>
Created by potrace 1.14, written by Peter Selinger 2001-2017
</metadata>
<g transform="translate(0.000000,128.000000) scale(0.100000,-0.100000)"
fill="#000000" stroke="none">
<path d="M0 640 l0 -640 640 0 640 0 0 640 0 640 -640 0 -640 0 0 -640z m638
189 l142 -170 0 -165 c0 -162 0 -164 -22 -168 -13 -3 -83 -10 -155 -17 -73 -7
-136 -13 -140 -13 -5 -1 -10 67 -13 149 l-5 150 -87 3 -88 3 0 -159 c0 -180 4
-172 -82 -172 l-38 0 0 203 -1 202 168 162 c92 89 171 163 174 163 3 0 69 -77
147 -171z m294 0 l146 -12 45 -61 c24 -34 47 -67 51 -74 6 -10 -24 -11 -156
-6 -185 8 -156 -6 -255 118 l-47 59 35 -6 c19 -4 100 -12 181 -18z m212 -215
l46 -7 0 -123 c0 -117 -1 -124 -20 -124 -19 0 -20 7 -20 95 l0 95 -130 0 -129
0 -3 -107 -3 -108 -27 -3 -28 -3 0 145 0 146 134 0 c73 0 154 -3 180 -6z"/>
<path d="M547 594 c-4 -4 -7 -47 -7 -96 l0 -88 28 0 c15 0 51 3 80 7 l53 6 -3
86 -3 86 -70 3 c-39 1 -74 0 -78 -4z"/>
</g>
</svg>
